<svg width="23" height="24" viewBox="0 0 23 24" fill="none" xmlns="http://www.w3.org/2000/svg">
<mask id="mask0_10_257" style="mask-type:alpha" maskUnits="userSpaceOnUse" x="0" y="0" width="23" height="24">
<rect x="0.179321" y="0.636292" width="22.5455" height="22.5455" fill="#D9D9D9"/>
</mask>
<g mask="url(#mask0_10_257)">
<path d="M10.6989 19.8291C8.91767 19.6545 7.42372 18.903 6.21707 17.5745C5.01026 16.246 4.40686 14.6756 4.40686 12.8632C4.40686 11.784 4.65016 10.7648 5.13677 9.80548C5.62322 8.84636 6.29825 8.04522 7.16187 7.40204L7.91879 8.16788C7.13831 8.68455 6.53553 9.36138 6.11045 10.1984C5.68538 11.0355 5.47284 11.9238 5.47284 12.8632C5.47284 14.3806 5.96986 15.6957 6.96389 16.8084C7.95808 17.9213 9.20309 18.5729 10.6989 18.7633V19.8291ZM12.2346 19.8471V18.7812C13.74 18.5573 14.985 17.8928 15.9696 16.7878C16.9541 15.6827 17.4464 14.3745 17.4464 12.8632C17.4464 11.1927 16.8674 9.7784 15.7094 8.62044C14.5515 7.46248 13.1373 6.8835 11.4669 6.8835H10.8436L12.3882 8.4281L11.6221 9.19394L8.7788 6.35063L11.6221 3.50708L12.3882 4.27316L10.8436 5.81775H11.4669C13.4322 5.81775 15.0978 6.50453 16.4635 7.87808C17.8292 9.25163 18.5121 10.9133 18.5121 12.8632C18.5121 14.6756 17.9112 16.2446 16.7094 17.57C15.5074 18.8954 14.0158 19.6544 12.2346 19.8471Z" fill="white"/>
</g>
</svg>
